<?xml version="1.0" encoding="UTF-8" standalone="no"?>
<svg
   xmlns:dc="http://purl.org/dc/elements/1.1/"
   xmlns:cc="http://creativecommons.org/ns#"
   xmlns:rdf="http://www.w3.org/1999/02/22-rdf-syntax-ns#"
   xmlns:svg="http://www.w3.org/2000/svg"
   xmlns="http://www.w3.org/2000/svg"
   xmlns:sodipodi="http://sodipodi.sourceforge.net/DTD/sodipodi-0.dtd"
   xmlns:inkscape="http://www.inkscape.org/namespaces/inkscape"
   inkscape:version="1.0beta2 (2b71d25, 2019-12-03)"
   sodipodi:docname="icon.svg"
   id="svg14"
   version="1.1"
   class="feather feather-book-open"
   stroke-linejoin="round"
   stroke-linecap="round"
   stroke-width="2"
   stroke="currentColor"
   fill="none"
   viewBox="0 0 24 24"
   height="24"
   width="24">
  <metadata
     id="metadata20">
    <rdf:RDF>
      <cc:Work
         rdf:about="">
        <dc:format>image/svg+xml</dc:format>
        <dc:type
           rdf:resource="http://purl.org/dc/dcmitype/StillImage" />
        <dc:title></dc:title>
      </cc:Work>
    </rdf:RDF>
  </metadata>
  <defs
     id="defs18" />
  <sodipodi:namedview
     inkscape:current-layer="svg14"
     inkscape:window-maximized="0"
     inkscape:window-y="23"
     inkscape:window-x="0"
     inkscape:cy="12"
     inkscape:cx="12"
     inkscape:zoom="33.791667"
     showgrid="false"
     id="namedview16"
     inkscape:window-height="976"
     inkscape:window-width="1868"
     inkscape:pageshadow="2"
     inkscape:pageopacity="0"
     guidetolerance="10"
     gridtolerance="10"
     objecttolerance="10"
     borderopacity="1"
     inkscape:document-rotation="0"
     bordercolor="#666666"
     pagecolor="#ffffff" />
  <path
     id="path10"
     d="M2 3h6a4 4 0 0 1 4 4v14a3 3 0 0 0-3-3H2z" />
  <path
     id="path12"
     d="M22 3h-6a4 4 0 0 0-4 4v14a3 3 0 0 1 3-3h7z" />
  <path
     style="stroke-width:1.17725"
     inkscape:connector-curvature="0"
     d="m 6.5688941,14.530724 v -3.4925 a 5.3571235,5.2387503 0 0 1 10.7142469,0 v 3.4925"
     id="path22" />
  <path
     style="stroke-width:1.17725"
     inkscape:connector-curvature="0"
     d="m 17.283141,15.112807 a 1.1904718,1.1641667 0 0 1 -1.190471,1.164167 h -0.595237 a 1.1904718,1.1641667 0 0 1 -1.190472,-1.164167 v -1.74625 a 1.1904718,1.1641667 0 0 1 1.190472,-1.164166 h 1.785708 z m -10.7142469,0 a 1.1904718,1.1641667 0 0 0 1.1904718,1.164167 h 0.5952359 a 1.1904718,1.1641667 0 0 0 1.1904725,-1.164167 v -1.74625 A 1.1904718,1.1641667 0 0 0 8.3546018,12.202391 H 6.5688941 Z"
     id="path24" />
</svg>
